<svg xmlns="http://www.w3.org/2000/svg" viewBox="0 0 305.85 236.8"><defs><style>.cls-1,.cls-10,.cls-11,.cls-15,.cls-16,.cls-18,.cls-19,.cls-2,.cls-20,.cls-23,.cls-24,.cls-6,.cls-9{stroke:#000;}.cls-1,.cls-10,.cls-11,.cls-15,.cls-16,.cls-18,.cls-19,.cls-2,.cls-20,.cls-23,.cls-24,.cls-5,.cls-6,.cls-7,.cls-8,.cls-9{stroke-miterlimit:10;}.cls-17,.cls-18,.cls-2{fill:#606c38;}.cls-16,.cls-2,.cls-20,.cls-5,.cls-6{stroke-width:0.75px;}.cls-3{fill:#1e1e1e;}.cls-4{fill:#fefae0;}.cls-10,.cls-15,.cls-20,.cls-5,.cls-6,.cls-7,.cls-8,.cls-9{fill:none;}.cls-5,.cls-8{stroke:#fefae0;}.cls-10,.cls-16,.cls-18,.cls-19,.cls-20,.cls-5,.cls-7,.cls-8,.cls-9{stroke-linecap:round;}.cls-7{stroke:#283618;}.cls-10{stroke-width:2px;}.cls-11{fill:#218197;}.cls-12,.cls-23{fill:#165664;}.cls-13{fill:#99ac5d;}.cls-14{opacity:0.69;}.cls-19{stroke-width:0.25px;}.cls-21{font-size:42px;font-family:LustSlim-Regular, Lust Slim;}.cls-22{font-size:8px;font-family:DrukWide-Bold, Druk Wide Bold;font-weight:700;}.cls-23,.cls-24{stroke-width:0.5px;}.cls-24{fill:#283618;}</style></defs><g id="details"><ellipse cx="196.86" cy="219.53" rx="45.89" ry="5.21"/></g><g id="tree"><ellipse id="details-2" data-name="details" class="cls-1" cx="133.26" cy="231.86" rx="65.6" ry="4.44"/><g id="legs"><path class="cls-2" d="M93.49,388.24v33.41a7.85,7.85,0,0,0,6,5.68c5,1.09,6.47,14.62,0,14.35,0,0-19.4,2.44-24-1.08a11.82,11.82,0,0,1-4-4c-2.07-3.8-1.26-8.23-1-9.8,1-6,1.25-16.28.48-33.56" transform="translate(65.75 -210.64)"/><path class="cls-2" d="M47.59,377.6l-6.53,32.77a7.87,7.87,0,0,1-7,4.41c-5.14.07-9.2,13.07-2.8,14.07,0,0,18.55,6.18,23.7,3.62a11.8,11.8,0,0,0,4.68-3.16c2.78-3.32,2.85-7.82,2.91-9.41.22-6,2-16.21,6.09-33" transform="translate(65.75 -210.64)"/></g><g id="highlists"><path class="cls-3" d="M43.91,397.3a30.74,30.74,0,0,1,7-.16A35.44,35.44,0,0,1,57,398.31a62.82,62.82,0,0,1,8,2.62l1.83-8.54c-1.92-.45-4-.84-6.17-1.13a63.85,63.85,0,0,0-15.47-.13C44.76,393.19,44.34,395.24,43.91,397.3Z" transform="translate(65.75 -210.64)"/><path class="cls-3" d="M71.65,401.7a39.25,39.25,0,0,0,13.29-.18l-3.77-6.61-3.44.77a27.22,27.22,0,0,0-2.91-1.14,29.16,29.16,0,0,0-3.43-.92l.2,5.9" transform="translate(65.75 -210.64)"/><g id="Layer_21" data-name="Layer 21"><path class="cls-4" d="M32.48,416.63a5.24,5.24,0,0,0-1.56,1.78,13.18,13.18,0,0,0-1.05,2.33,13.71,13.71,0,0,0-.46,2.71,9.83,9.83,0,0,0,.13,3.06c.1.47.83.27.72-.2a9.55,9.55,0,0,1-.11-2.77,14.39,14.39,0,0,1,.4-2.45,11,11,0,0,1,.88-2,4.52,4.52,0,0,1,1.43-1.78c.4-.27,0-.92-.38-.65Z" transform="translate(65.75 -210.64)"/><path class="cls-4" d="M60,414.56a30.28,30.28,0,0,1-1.31,9.78c-.14.46.59.66.73.2a31.19,31.19,0,0,0,1.33-10,.38.38,0,0,0-.75,0Z" transform="translate(65.75 -210.64)"/><path class="cls-5" d="M72.6,424.64s-2.27,7.47.32,10.78" transform="translate(65.75 -210.64)"/><path class="cls-5" d="M102,436.11s-.2,3.76-3.66,3.91" transform="translate(65.75 -210.64)"/></g></g><g id="leg_border" data-name="leg border"><path class="cls-6" d="M93.1,387.72v33.41a7.86,7.86,0,0,0,6,5.69c5,1.08,6.47,14.62,0,14.35,0,0-19.39,2.44-23.95-1.08a11.91,11.91,0,0,1-4-4c-2.07-3.81-1.27-8.23-1-9.8,1-6,1.25-16.28.48-33.56" transform="translate(65.75 -210.64)"/><path class="cls-6" d="M47.19,377.09l-6.53,32.77a7.86,7.86,0,0,1-7,4.4c-5.15.08-9.2,13.08-2.81,14.07,0,0,18.55,6.18,23.7,3.62a11.77,11.77,0,0,0,4.69-3.15c2.77-3.33,2.84-7.83,2.9-9.42.22-6,2-16.21,6.09-33" transform="translate(65.75 -210.64)"/></g><path id="body" class="cls-2" d="M79.31,212.12S92,277.71,100.82,283.19c0,0-2.53,1.32-6.75-1.12,0,0,20.52,37.57,30.65,44.27,0,0-8.72-2.23-11.25-5.07,0,0,16,31.17,33.88,44,0,0-6.75-.61-9.14-2.34,0,0,12.09,24.47,22.21,33,0,0-23.9-1.93-29.24-3.86s-20.1-1.92-21.65-.4S91.26,396.5,89,395.89c0,0-7.17,1.22-21.22-3.45,0,0-10.68-2.64-20.38-1.62s-21.65-3.66-21.65-3.66-21.37.61-25,1.32S22,368.17,26.32,356.9c0,0-7.87,2.85-12.93,1.83,0,0,29-33.71,27.83-37.06a63.34,63.34,0,0,1-7.73.93s16.59-11.79,29.94-39.31a50.49,50.49,0,0,1-5.76.71l5.58-8.87h0a112.56,112.56,0,0,0,7.68-21.85c1.1-4.67,1.94-9.71,2.48-12.94,1.33-8,1.48-11,2.81-17.05A113.54,113.54,0,0,1,79.31,212.12Z" transform="translate(65.75 -210.64)"/><g id="leaves"><path class="cls-7" d="M52.17,315l.82,4.79,4.53-3.24" transform="translate(65.75 -210.64)"/><path class="cls-7" d="M69.72,307.8,74.06,310c0-1.86.07-3.71.1-5.57" transform="translate(65.75 -210.64)"/><path class="cls-7" d="M80.69,251.66l1,3.45,3.07-2.71" transform="translate(65.75 -210.64)"/><path class="cls-7" d="M39.33,348.42l1,3.45,3.07-2.71" transform="translate(65.75 -210.64)"/><path class="cls-7" d="M62.73,351.28l3.65,5.27,3.6-6.4" transform="translate(65.75 -210.64)"/><path class="cls-7" d="M52.59,337.13l4.29,2.3c.07-1.85.14-3.71.22-5.56" transform="translate(65.75 -210.64)"/><path class="cls-7" d="M27.14,369.84l2.73,6.1,4.92-5.86" transform="translate(65.75 -210.64)"/><path class="cls-7" d="M56,372.89l-1.11,6.6,7.34-2.16" transform="translate(65.75 -210.64)"/><path class="cls-7" d="M84.16,319.72l6,1q-1-3.34-1.91-6.69" transform="translate(65.75 -210.64)"/></g><g id="highlight"><g id="Layer_15" data-name="Layer 15"><path class="cls-4" d="M-64.79,390.46a1,1,0,0,0,0-2,1,1,0,0,0,0,2Z" transform="translate(65.75 -210.64)"/><path class="cls-8" d="M79.56,213.36a166.72,166.72,0,0,0-5.4,24.88s-.81,12.17-4.67,22.55-1.63,8-10.51,22.55l4-.56" transform="translate(65.75 -210.64)"/><path class="cls-8" d="M64.25,283.34s-9.43,19.22-17.74,27.53A86.91,86.91,0,0,1,35.3,322l5.21-.73" transform="translate(65.75 -210.64)"/><path class="cls-8" d="M41.63,323.53s-5.66,9.54-11.54,15.9a228.34,228.34,0,0,1-15.42,18.78s7.58,0,11.53-2.24" transform="translate(65.75 -210.64)"/><path class="cls-8" d="M27.14,357c-5.43,13-17.43,20-25.73,30.79.35,0,1.35-1.43,0,0a7.9,7.9,0,0,0,1.09-.12" transform="translate(65.75 -210.64)"/><path class="cls-4" d="M26.59,356.33l0,0-.11.08.13-.07-.12.05a.42.42,0,0,1,.15,0h-.09a.42.42,0,0,1,.15,0l-.12-.05a.35.35,0,0,1,.12.07l-.1-.08a.47.47,0,0,1,.1.1l-.08-.1a.39.39,0,0,1,.08.14l-.05-.12a.88.88,0,0,1,.05.15l0-.13a.43.43,0,0,1,0,.16l0-.13a.83.83,0,0,1,0,.15l0-.12,0,0a.53.53,0,0,0,0,.39.52.52,0,0,0,.23.3.5.5,0,0,0,.38.05.53.53,0,0,0,.3-.23,1,1,0,0,0,.1-.27.92.92,0,0,0,0-.29,1.1,1.1,0,0,0-.16-.55,1,1,0,0,0-.18-.22.81.81,0,0,0-.23-.17,1,1,0,0,0-.27-.09,1,1,0,0,0-.3,0,1.13,1.13,0,0,0-.31.06,1.21,1.21,0,0,0-.2.09,1.09,1.09,0,0,0-.17.13.49.49,0,0,0-.15.35.53.53,0,0,0,.15.36.5.5,0,0,0,.35.14l.13,0a.43.43,0,0,0,.22-.12Z" transform="translate(65.75 -210.64)"/><path class="cls-4" d="M41,321.65h0s0,0,0,0,0,0,0,0l.07,0c.05,0,.05,0,0,0l.07,0,.06,0h0l0,.06s0-.06,0,0l0,.08,0,.16c0,.06,0,.06,0,0a.28.28,0,0,1,0,.09,6.41,6.41,0,0,1-.09,1.38.46.46,0,0,0,.14.35.56.56,0,0,0,.29.14.51.51,0,0,0,.55-.36l.06-.17-1-.13v.09a.51.51,0,0,0,.5.5.5.5,0,0,0,.5-.5c0-.34,0-.69,0-1a.51.51,0,0,0-.5-.5.5.5,0,0,0-.5.5c0,.34,0,.69,0,1h1v-.09a.51.51,0,0,0-1-.13l-.06.17,1,.13a5.44,5.44,0,0,0,0-1.8,1.2,1.2,0,0,0-.56-.82,1,1,0,0,0-1.08-.06.5.5,0,0,0-.18.68.51.51,0,0,0,.69.18Z" transform="translate(65.75 -210.64)"/><path class="cls-4" d="M41.05,321.5a1.21,1.21,0,0,1,.05-.18l-.05.12h0l-.08.1h0l-.36.14H40.5l-.12-.05a.84.84,0,0,0,.14.06h.16l.19,0,.15,0a.32.32,0,0,0,.17-.09.33.33,0,0,0,.12-.14.32.32,0,0,0,.06-.18.27.27,0,0,0,0-.2l0-.12a.39.39,0,0,0-.18-.18l-.11-.05a.42.42,0,0,0-.27,0l-.18,0,.14,0h-.05l.14,0h0l.12.05-.07,0-.06,0-.13,0h-.07a.6.6,0,0,0-.19.06l-.1.08,0,.05,0,.06,0,.12h0v0a.56.56,0,0,0,0,.12.46.46,0,0,0,0,.2.6.6,0,0,0,.06.19.44.44,0,0,0,.13.14.56.56,0,0,0,.17.09l.13,0a.59.59,0,0,0,.26-.07l.1-.08a.54.54,0,0,0,.13-.22Z" transform="translate(65.75 -210.64)"/><path class="cls-4" d="M42.14,323.57a3,3,0,0,0,.14-1,2.73,2.73,0,0,0,0-.57,2.79,2.79,0,0,0-.2-.55.48.48,0,0,0-.68-.17.48.48,0,0,0-.23.29.59.59,0,0,0,0,.39l0,.06c0-.07,0-.08,0,0a.36.36,0,0,1,0,.11.86.86,0,0,1,.05.23v-.13a4,4,0,0,1,0,.91l0-.13a1.87,1.87,0,0,1-.08.32.51.51,0,0,0,0,.38.46.46,0,0,0,.3.23.5.5,0,0,0,.61-.35Z" transform="translate(65.75 -210.64)"/><path class="cls-4" d="M42.24,322.16a1,1,0,0,0,0-.38,1.14,1.14,0,0,0-.06-.25,1,1,0,0,0-.09-.21.59.59,0,0,0-.13-.18.54.54,0,0,0-.16-.14.58.58,0,0,0-.21-.1.34.34,0,0,0-.2,0,.33.33,0,0,0-.19.06.53.53,0,0,0-.23.3.55.55,0,0,0,.05.38l.08.1a.46.46,0,0,0,.22.13h0l-.12-.05.07,0-.1-.07.06.06-.08-.1.07.11,0-.12a2.49,2.49,0,0,1,.09.37l0-.13a.54.54,0,0,1,0,.18.45.45,0,0,0,0,.19.39.39,0,0,0,.1.16.5.5,0,0,0,.71,0l.08-.1a.54.54,0,0,0,.06-.25Z" transform="translate(65.75 -210.64)"/><path class="cls-4" d="M63.17,283.25l.09-.05-.12.05.1,0-.13,0c.13,0,.26,0,.39,0a1.09,1.09,0,0,1,.36,0l-.13,0,.15,0-.12-.05.08.05-.1-.08.06.07-.07-.1,0,.06,0-.11a.32.32,0,0,1,0,.09l0-.13a.54.54,0,0,1,0,.18l0-.13a1.6,1.6,0,0,1-.05.21l.05-.12,0,0a.5.5,0,0,0,0,.38.5.5,0,0,0,.23.3.5.5,0,0,0,.68-.18,1.22,1.22,0,0,0,.12-.84.87.87,0,0,0-.61-.62,1.63,1.63,0,0,0-.66,0h-.3a1.09,1.09,0,0,0-.46.15.52.52,0,0,0-.23.3.49.49,0,0,0,.05.39.53.53,0,0,0,.3.23.51.51,0,0,0,.38-.05Z" transform="translate(65.75 -210.64)"/><path class="cls-4" d="M64.56,283.77a1.42,1.42,0,0,0,.21-.33,1.37,1.37,0,0,0,.09-.4.82.82,0,0,0-.4-.72,1.35,1.35,0,0,0-.66-.13,1.44,1.44,0,0,0-.58.09.34.34,0,0,0-.17.08.43.43,0,0,0-.13.14.53.53,0,0,0-.05.39.5.5,0,0,0,.23.3.46.46,0,0,0,.38.05.8.8,0,0,1,.21-.05h-.13a2.26,2.26,0,0,1,.52,0l-.13,0a.38.38,0,0,1,.1,0l-.12-.05a.05.05,0,0,1,0,0l-.1-.08a.12.12,0,0,1,0,.05l-.07-.1,0,.07,0-.12a.31.31,0,0,1,0,.08l0-.13a.28.28,0,0,1,0,.13l0-.14a.83.83,0,0,1,0,.15l.05-.12a.54.54,0,0,1-.09.15l.08-.1,0,0a.48.48,0,0,0,0,.7.47.47,0,0,0,.35.15.53.53,0,0,0,.36-.15Z" transform="translate(65.75 -210.64)"/></g></g><g id="border"><path id="body-2" data-name="body" class="cls-6" d="M79.31,212.12S92,277.71,100.82,283.19c0,0-2.53,1.32-6.75-1.12,0,0,20.52,37.57,30.65,44.27,0,0-8.72-2.23-11.25-5.07,0,0,16,31.17,33.88,44,0,0-6.75-.61-9.14-2.34,0,0,12.09,24.47,22.21,33,0,0-23.9-1.93-29.24-3.86s-20.1-1.92-21.65-.4S91.26,396.5,89,395.89c0,0-7.17,1.22-21.22-3.45,0,0-10.68-2.64-20.38-1.62s-21.65-3.66-21.65-3.66-21.37.61-25,1.32S22,368.17,26.32,356.9c0,0-7.87,2.85-12.93,1.83,0,0,29-33.71,27.83-37.06a63.34,63.34,0,0,1-7.73.93s16.59-11.79,29.94-39.31a50.49,50.49,0,0,1-5.76.71l5.58-8.87h0a112.56,112.56,0,0,0,7.68-21.85c1.1-4.67,1.94-9.71,2.48-12.94,1.33-8,1.48-11,2.81-17.05A113.54,113.54,0,0,1,79.31,212.12Z" transform="translate(65.75 -210.64)"/></g><g id="face"><path class="cls-9" d="M78.88,289.56s4.11,2.49,6.42-1.13" transform="translate(65.75 -210.64)"/><line class="cls-10" x1="139.91" y1="67.26" x2="139.91" y2="73.19"/><line class="cls-10" x1="149.19" y1="67.26" x2="149.19" y2="73.19"/></g></g><g id="globe"><ellipse class="cls-11" cx="196.86" cy="146.63" rx="72.07" ry="58.09"/><path class="cls-12" d="M119.23,300c2.32,3.22-16.61,15.21-25.23,38.22a65.87,65.87,0,0,0-3.84,16.06c-1.33,13,1.79,23.06,4.75,32.31a116.53,116.53,0,0,0,10.9,24.15,59.89,59.89,0,0,1-36-23.82,55.17,55.17,0,0,1-9.33-19.74A53.23,53.23,0,0,1,59,352.28h0a54.23,54.23,0,0,1,9.36-24.52c5.38-7.64,11.23-11.5,19.41-16.92a85.1,85.1,0,0,1,25.69-10.64C117.64,299.21,118.78,299.34,119.23,300Z" transform="translate(65.75 -210.64)"/><g id="world"><path class="cls-13" d="M82.92,399.87a7.13,7.13,0,0,1-.52-6.56c2.18-5,9.39-6.2,11.64-11.17.81-1.78.88-3.86,1.9-5.53,1.23-2,3.57-3,5.82-3.7a11.31,11.31,0,0,1,4.48-.7,8.4,8.4,0,0,1,5.76,3.64,19.81,19.81,0,0,1,2.75,6.42c.65,2.37,1.19,4.84,2.55,6.88a24.59,24.59,0,0,0,5,4.84c3.33,2.77,6.49,6.54,6.19,10.87-.1,1.52-.64,3-.88,4.49a5.36,5.36,0,0,0,.85,4.36" transform="translate(65.75 -210.64)"/><path class="cls-13" d="M83.79,399.36a6.32,6.32,0,0,1,1-7.82,36.54,36.54,0,0,1,5.6-4.12,12.57,12.57,0,0,0,4.5-4.77,34,34,0,0,0,1.25-4.06,6,6,0,0,1,3-3.55c2.57-1.42,6.27-2.62,9.05-1.24s4.34,4.54,5.24,7.47,1.41,6.15,3.25,8.72c1.7,2.37,4.2,3.92,6.29,5.9,2.37,2.23,4.66,5.16,4.58,8.57s-2.24,6.73.09,9.75c.77,1,2.51,0,1.73-1-1.14-1.48-.88-3.23-.48-4.93a11.82,11.82,0,0,0-3.78-13.09c-2.3-2.35-5.43-4.05-7.17-6.9-1.84-3-2.1-6.78-3.48-10a11.42,11.42,0,0,0-6.17-6.58c-3-1.13-6.36-.1-9.15,1.14A9.58,9.58,0,0,0,95.89,375a10,10,0,0,0-2,4.45,9.26,9.26,0,0,1-1.83,4,15.09,15.09,0,0,1-2.86,2.43c-2.28,1.57-4.81,2.93-6.54,5.16a8.22,8.22,0,0,0-.55,9.33,1,1,0,0,0,1.73-1Z" transform="translate(65.75 -210.64)"/><path class="cls-13" d="M134.87,373.29" transform="translate(65.75 -210.64)"/><path class="cls-13" d="M134.87,374.29a1,1,0,0,0,0-2,1,1,0,0,0,0,2Z" transform="translate(65.75 -210.64)"/><path class="cls-13" d="M134.45,373.1c2.18-3.17,6-4.87,9.74-5.62s7.66-.69,11.47-1.17A41.22,41.22,0,0,0,174,359.22c2.38-1.67,4.76-3.66,7.65-3.9a7.49,7.49,0,0,1,6.81,3.57,8.56,8.56,0,0,1,.41,7.77c-1.3,2.94-4,5-5.8,7.65-1.45,2.17-2.23,4.72-3.57,7A16,16,0,0,1,166,389.05c-5.9,0-11.15-3.44-16.5-5.93a56.85,56.85,0,0,0-9-3.31,11.63,11.63,0,0,1-4.91-2.14c-1.33-1.22-1.87-3.52-.62-4.81" transform="translate(65.75 -210.64)"/><path class="cls-13" d="M135.31,373.6c2.56-3.58,7.07-5,11.25-5.49,4.7-.59,9.42-.56,14-1.71a42.1,42.1,0,0,0,12.14-5.13c3.28-2,7-6,11.22-4.71,4.51,1.4,5.81,6.78,3.56,10.62a35.37,35.37,0,0,1-3.83,4.73,23.13,23.13,0,0,0-3.27,5.35c-1.78,3.88-3.91,7.15-7.81,9.17a15.45,15.45,0,0,1-12.2.61c-4.86-1.61-9.23-4.45-14-6.32-2.34-.92-4.72-1.57-7.11-2.3a6.85,6.85,0,0,1-3.21-1.7,2.52,2.52,0,0,1-.38-3.16c.83-1-.58-2.39-1.41-1.41a4.34,4.34,0,0,0-.2,5.24c1.19,1.86,3.4,2.61,5.42,3.18a61.84,61.84,0,0,1,7.8,2.67c2.43,1,4.76,2.29,7.13,3.44,4.38,2.13,9.06,3.92,14,3.18a17.15,17.15,0,0,0,10.89-6.54,38.52,38.52,0,0,0,3.44-6.43,28.48,28.48,0,0,1,4.35-5.89c3-3.48,4.79-8.09,2.31-12.44a8.46,8.46,0,0,0-10.89-3.41c-2.23,1-4.08,2.61-6.11,3.93a39.61,39.61,0,0,1-7,3.68,41.38,41.38,0,0,1-8.31,2.33c-3.17.54-6.4.58-9.59.91-5.28.55-10.7,2.07-13.94,6.59-.75,1.05,1,2.05,1.73,1Z" transform="translate(65.75 -210.64)"/><path class="cls-13" d="M108.86,302.55a19.27,19.27,0,0,1,3.34,8.53c.4,3.06.11,6.38,1.72,9,1.84,3,5.62,4.18,9.12,4.45s7.09-.13,10.5.75c2.44.63,4.68,1.9,7.12,2.51,6.23,1.55,12.61-1.35,18.32-4.28,3.17-1.62,6.62-3.63,7.56-7.06.73-2.68-.31-5.56.19-8.29" transform="translate(65.75 -210.64)"/><path class="cls-13" d="M108,303.06a18.63,18.63,0,0,1,3.24,8.42c.32,2.7.17,5.51,1.28,8.06,2.24,5.16,8.3,6,13.28,6.11,3.3.05,6.45.12,9.58,1.3,2.9,1.09,5.61,2.26,8.77,2.28,6,0,11.84-2.84,16.93-5.69,2.27-1.27,4.61-2.89,5.82-5.28,1.61-3.18.28-6.49.8-9.82.19-1.26-1.73-1.8-1.93-.53-.43,2.78.57,5.74-.25,8.45-.68,2.28-2.7,3.82-4.66,5-4.67,2.8-10.31,5.61-15.84,5.85-3,.14-5.56-.79-8.28-1.87a23.62,23.62,0,0,0-8.18-1.65c-4.69-.14-11.55.41-14.07-4.63-1.32-2.63-.95-5.82-1.39-8.66a20.29,20.29,0,0,0-3.38-8.35c-.72-1.05-2.46-.05-1.72,1Z" transform="translate(65.75 -210.64)"/><path class="cls-13" d="M109.23,303.61a12.57,12.57,0,0,1,3.71-.82,124,124,0,0,1,52.51,5.54,80.73,80.73,0,0,0-54.12-5c-.1-.48.48-.8,1-.94a49.48,49.48,0,0,1,13.63-1.53c8.81-.08,17.7.34,26.27,2.4a69.43,69.43,0,0,1,13.58,4.82" transform="translate(65.75 -210.64)"/><path class="cls-13" d="M109.5,304.58a22.53,22.53,0,0,1,6.69-1.1c2.32-.2,4.66-.33,7-.39a122.8,122.8,0,0,1,42,6.21c1.06.35,1.8-1.35.77-1.83a81.42,81.42,0,0,0-54.89-5.12l1.26,1c0-.06,2.66-.59,3-.65,1.16-.22,2.32-.39,3.49-.5,2.21-.22,4.43-.29,6.64-.31,4.57-.06,9.15,0,13.71.39a74.83,74.83,0,0,1,26.12,6.68c1.16.55,2.17-1.17,1-1.72a78.91,78.91,0,0,0-28.81-7.09,142.93,142.93,0,0,0-15.35-.18,48.9,48.9,0,0,0-7.34.8c-1.56.31-4.32.53-4.44,2.58a1,1,0,0,0,1.27,1A79.9,79.9,0,0,1,165,309.2l.77-1.83A125.12,125.12,0,0,0,123,301.1c-2.42.07-4.82.21-7.23.42a23.08,23.08,0,0,0-6.76,1.13c-1.17.48-.66,2.41.54,1.93Z" transform="translate(65.75 -210.64)"/><path class="cls-13" d="M98.26,334.86a6.71,6.71,0,0,0-3,3.63,2.37,2.37,0,0,0,.47,2.74,2.5,2.5,0,0,0,2.41-.13,9.73,9.73,0,0,0,5.39-7.53,1.12,1.12,0,0,0-.1-.75,1,1,0,0,0-.8-.37,4.34,4.34,0,0,0-4.4,2.66" transform="translate(65.75 -210.64)"/><path class="cls-13" d="M97.75,334A7.33,7.33,0,0,0,94,339.29a2.89,2.89,0,0,0,1.21,2.83,3.6,3.6,0,0,0,3.48-.21,10.74,10.74,0,0,0,5.61-7.3,4.67,4.67,0,0,0,.14-1.7,1.75,1.75,0,0,0-1.27-1.36,4.89,4.89,0,0,0-3.53.52,5.43,5.43,0,0,0-2.45,2.77,1,1,0,0,0,.7,1.23,1,1,0,0,0,1.23-.69,3.38,3.38,0,0,1,3.13-1.95c.1,0,.38,0,.39.05s-.21-.16-.16-.17-.16,1-.18,1.08a8.36,8.36,0,0,1-.79,2.07,8.73,8.73,0,0,1-3,3.27,3.62,3.62,0,0,1-2,.76l-.23-.06a.37.37,0,0,1-.17-.15,1.2,1.2,0,0,1-.13-.75,5.38,5.38,0,0,1,2.75-3.81,1,1,0,0,0-1-1.72Z" transform="translate(65.75 -210.64)"/><path class="cls-13" d="M102.17,347.35a14.19,14.19,0,0,0-5,4.46,28.1,28.1,0,0,0-1.85,3.3L92.82,360a.62.62,0,0,0-.1.35c0,.24.28.39.51.46,1.66.49,3.35-.66,4.56-1.9a21,21,0,0,0,5.27-9.14c.17-.59.23-1.38-.3-1.68" transform="translate(65.75 -210.64)"/><path class="cls-13" d="M101.67,346.48a15.36,15.36,0,0,0-5.6,5.14,39.84,39.84,0,0,0-2.06,3.8c-.68,1.36-1.41,2.7-2.05,4.07s.51,2.35,1.89,2.43a5.41,5.41,0,0,0,3.45-1.26,18.42,18.42,0,0,0,4.79-5.87,22.06,22.06,0,0,0,1.68-3.9c.42-1.29.77-2.75-.51-3.66-1.05-.75-2.05,1-1,1.72-.16-.11,0-.11-.07,0a2.28,2.28,0,0,0,0,.26,7.06,7.06,0,0,1-.25.9,17.61,17.61,0,0,1-.67,1.84,20.63,20.63,0,0,1-2,3.59,17.07,17.07,0,0,1-2.56,3,5.8,5.8,0,0,1-1.59,1.1,3,3,0,0,1-.83.24h-.42a1.11,1.11,0,0,1-.25-.05c-.19-.07-.16,0,.08.21v.53a6.93,6.93,0,0,1,.83-1.74l1-2c.64-1.25,1.24-2.53,2-3.73a13.45,13.45,0,0,1,5.22-5c1.13-.61.12-2.33-1-1.73Z" transform="translate(65.75 -210.64)"/><g class="cls-14"><path class="cls-13" d="M73.09,346.79a11.68,11.68,0,0,0-.93-2.66c-1.21-3.05-1.16-6.45-.93-9.72a8.59,8.59,0,0,0-.14-3.12A2.8,2.8,0,0,0,69,329.22l-.41,1.26c-.54,1.3-1.13,2.58-1.74,3.85-.39.71-.79,1.42-1.15,2.15-.17.32-.31.66-.46,1v0A22.18,22.18,0,0,0,66.58,333a23.89,23.89,0,0,1-1.83,2.67c-1,1.57-1.14,3.52-1.68,5.3-.61,2-1.74,3.91-2.21,6-.61,2.73-.06,5.71-.49,8.42l-.06.2,0-3.7q-.37,3-.73,6l-.42,1.26c2.44.93,5-1,6.9-2.72l3.46-3.16C71.38,351.48,73.44,349.32,73.09,346.79Z" transform="translate(65.75 -210.64)"/><path class="cls-13" d="M74.05,346.52c-.3-1.65-1.2-3.13-1.56-4.79a22.15,22.15,0,0,1-.35-5.75c.12-2.75.68-6.93-2.9-7.73A1,1,0,0,0,68,329a56,56,0,0,1-3.68,8l1.83.77a25.2,25.2,0,0,0,1.39-4.5c.21-1.05-1.29-1.83-1.83-.77s-1.26,1.74-1.83,2.67a9.19,9.19,0,0,0-1,2.42,48.31,48.31,0,0,1-1.83,5.85,16.66,16.66,0,0,0-1.47,5.71c-.11,1.94.37,4.3-.24,6.16l2,.26,0-3.7c0-1.32-1.85-1.24-2,0a37.2,37.2,0,0,1-1.11,7,1,1,0,0,0,.7,1.23c3.85,1.23,7-2.23,9.59-4.57s6-4.91,5.62-8.7c-.12-1.27-2.12-1.29-2,0,.28,3-2.69,5.15-4.68,7s-4.89,5.37-8,4.37l.7,1.23a39.31,39.31,0,0,0,1.18-7.51h-2l0,3.7a1,1,0,0,0,2,.27c.54-1.64.26-3.66.27-5.35a16,16,0,0,1,1.4-6.43,32.76,32.76,0,0,0,1.71-5.36A8.4,8.4,0,0,1,65.73,336a28.4,28.4,0,0,0,1.72-2.5l-1.83-.77a24.41,24.41,0,0,1-1.39,4.5c-.43,1,1.32,1.77,1.83.77a60.42,60.42,0,0,0,3.88-8.51l-1.23.7c1.69.38,1.63,2.39,1.55,3.78-.09,1.57-.2,3.14-.14,4.72a19.44,19.44,0,0,0,.6,4.23c.37,1.42,1.14,2.7,1.41,4.14C72.36,348.32,74.29,347.78,74.05,346.52Z" transform="translate(65.75 -210.64)"/><path class="cls-13" d="M66.82,331.56c-.06.48-.15.95-.24,1.42A2.38,2.38,0,0,0,66.82,331.56Z" transform="translate(65.75 -210.64)"/><path class="cls-13" d="M65.82,331.56v.06l0-.27c-.06.46-.14.91-.23,1.37a.77.77,0,0,0,0,.4.85.85,0,0,0,.12.37l.15.2a.78.78,0,0,0,.33.21.52.52,0,0,0,.25.07.78.78,0,0,0,.4,0l.24-.1a1,1,0,0,0,.36-.36,4.34,4.34,0,0,0,.32-.94,3.18,3.18,0,0,0,.07-.62,2.69,2.69,0,0,0-.06-.63,1,1,0,0,0-.83-.72.78.78,0,0,0-.4,0,1,1,0,0,0-.59.46l-.11.24a1.19,1.19,0,0,0,0,.53v.05l0-.27a2.62,2.62,0,0,1,0,.56l0-.26a2.77,2.77,0,0,1-.2.72l.1-.24,0,.09,1.83.77c.11-.56.19-1.12.27-1.69a.71.71,0,0,0-.09-.38.81.81,0,0,0-.53-.53.71.71,0,0,0-.38-.09,1,1,0,0,0-.71.29l-.15.21A.88.88,0,0,0,65.82,331.56Z" transform="translate(65.75 -210.64)"/></g><path class="cls-13" d="M86.5,397.3l-1.22,1.63a1.61,1.61,0,0,1-.55.52,1,1,0,0,1-1.18-.4,3,3,0,0,1-.47-1.25,3.48,3.48,0,0,1,2.67.66,10.48,10.48,0,0,1,2,2,4.7,4.7,0,0,1-2.76-.13c-.69-.34-1.35-1-2.07-.77a3,3,0,0,1,1.62.07c.54.08,1.26-.15,1.28-.7" transform="translate(65.75 -210.64)"/><path class="cls-13" d="M85.63,396.8l-.83,1.1c-.14.2-.29.39-.43.58.1-.13,0,0,0,0s-.07.07,0,0c-.1.06-.09.06,0,0-.11,0-.08,0,.08,0h0l-.1,0c.14.06.16.06.06,0s-.08-.05,0,0l-.1-.09,0,0c-.06,0-.09-.14-.12-.2s0-.09,0,0l0-.15a4.52,4.52,0,0,1-.15-.61l-.7,1.23s.12,0,.15,0-.16,0,0,0h.32a.44.44,0,0,1,.16,0s-.19,0,0,0l.31.08.31.1c.1,0,.06,0,0,0l.15.07a4.05,4.05,0,0,1,.59.36l.06,0,.06.05.25.22c.17.15.32.31.48.47.31.33.6.69.89,1l.44-1.67-.33.05c-.11,0-.06,0,0,0l-.17,0c-.23,0-.47,0-.7,0l-.33,0c-.14,0,.17,0,0,0l-.15,0c-.11,0-.21-.06-.32-.09s.14.07,0,0l-.17-.08c-.35-.19-.67-.44-1-.61a2.31,2.31,0,0,0-1.69-.2l.53,1.93s.32-.08.18-.06.16,0,.19,0c.26,0-.2-.05.06,0l.25,0a3.72,3.72,0,0,0,1.24.09,2.13,2.13,0,0,0,1.08-.43,1.67,1.67,0,0,0,.64-1.25,1,1,0,0,0-1-1,1,1,0,0,0-1,1c0-.16,0-.2,0-.12l.05-.12c-.08.15.12-.14,0-.05s.19-.11,0,0l-.07,0,.1,0a.42.42,0,0,0-.15,0c-.19.05,0,0,0,0a1.15,1.15,0,0,0-.18,0s-.21,0-.06,0-.09,0-.1,0l-.21-.05-.64-.1a2.24,2.24,0,0,0-1.06.11,1,1,0,0,0-.7,1.23,1,1,0,0,0,1.23.7.57.57,0,0,0,.14,0l-.14,0h0s.1,0,.13,0,.1.05.13,0c-.12-.05-.14-.06-.07,0l.06,0,.26.14a6.66,6.66,0,0,0,1.26.68,6.21,6.21,0,0,0,3.06,0,1,1,0,0,0,.7-.7,1,1,0,0,0-.26-1,10.05,10.05,0,0,0-2.28-2.23,4.42,4.42,0,0,0-3.33-.69,1,1,0,0,0-.7,1.23,3.7,3.7,0,0,0,.74,1.71,2,2,0,0,0,1.68.72,1.9,1.9,0,0,0,1.12-.49,4.6,4.6,0,0,0,.59-.73l1.11-1.47a1,1,0,0,0-.36-1.37,1,1,0,0,0-1.37.36Z" transform="translate(65.75 -210.64)"/><path class="cls-13" d="M86,399.62c-.58.36-.08,1.33.57,1.54s1.42.1,2,.5a5.16,5.16,0,0,1,.73.82,5.38,5.38,0,0,0,2.61,1.36L99.05,406a36.76,36.76,0,0,1,9.75,4,21.09,21.09,0,0,0,4.11,2.54c2,.72,4.14.49,6.23.52a24.55,24.55,0,0,1,9.44,2" transform="translate(65.75 -210.64)"/><path class="cls-13" d="M85.27,398.92c-1.06,1-.4,2.55.77,3.1a5.19,5.19,0,0,0,1.18.27,2.16,2.16,0,0,1,1.32.9,5.44,5.44,0,0,0,2,1.26c4.12,1.6,8.53,2.46,12.68,4a24.88,24.88,0,0,1,5.76,2.95,12.61,12.61,0,0,0,5.41,2.6c2.19.33,4.42,0,6.62.24a23.58,23.58,0,0,1,7.09,1.81c1.17.5,2.19-1.23,1-1.73a28.87,28.87,0,0,0-11.76-2.17,9.86,9.86,0,0,1-5.7-1.32,51.36,51.36,0,0,0-4.62-2.92,71,71,0,0,0-10.84-3.78l-3.14-1a10,10,0,0,1-2.41-.85c-.75-.45-1.1-1.27-1.89-1.66-.47-.23-1.74-.6-2-.31.95-.87-.47-2.29-1.41-1.41Z" transform="translate(65.75 -210.64)"/><path class="cls-13" d="M111.13,411.93a23,23,0,0,1-7.34-1.68l-3.11-1.09c-1.42-.49-2.85-1-4.25-1.55a46.58,46.58,0,0,1-11.67-6.85" transform="translate(65.75 -210.64)"/><path class="cls-13" d="M111.13,410.93a23.35,23.35,0,0,1-7.07-1.65c-2.25-.78-4.51-1.53-6.73-2.39a45.65,45.65,0,0,1-11.86-6.83c-1-.8-2.42.61-1.41,1.41a48.28,48.28,0,0,0,12.32,7.18c2.35.94,4.76,1.73,7.15,2.56a25.27,25.27,0,0,0,7.6,1.72,1,1,0,0,0,0-2Z" transform="translate(65.75 -210.64)"/><path class="cls-13" d="M96.61,405.38c1.52,1.34,3.53,2,5.42,2.72a32.07,32.07,0,0,1,6,3.26c-2.37-1-4.72-2-7.06-3.08" transform="translate(65.75 -210.64)"/><path class="cls-13" d="M95.9,406.09a19.71,19.71,0,0,0,5.68,2.91,31,31,0,0,1,6,3.23l.77-1.83c-2.29-.95-4.57-1.94-6.82-3a1,1,0,1,0-1,1.73q3.62,1.65,7.3,3.18a1,1,0,0,0,1.18-.58,1,1,0,0,0-.41-1.25,33.41,33.41,0,0,0-5.91-3.2c-1.82-.77-3.84-1.32-5.37-2.63-1-.83-2.39.58-1.41,1.42Z" transform="translate(65.75 -210.64)"/><path class="cls-13" d="M106.61,404.86l-1.12,5.69-.17-6.11a2.27,2.27,0,0,0-.7,1.79,3.71,3.71,0,0,1-.42-1.69,3.44,3.44,0,0,1-.2,1.71,3.91,3.91,0,0,1-1.45-2.52l-.17,1.91-1.44-3.52-.91,2.06c-.13.27-.67,0-.37,0l-.55,2c-1,.22-1.19-1.82-2.23-2a1.74,1.74,0,0,0-1,.26,6,6,0,0,1-7.66-2.83,3.56,3.56,0,0,1,3.44,1,10.35,10.35,0,0,1,2,3.11l-3.2-2.1c-.5-.33-1.05-.75-1-1.35,0-.77.94-1.16,1.71-1.19,4.07-.13,6.84,4.26,10.75,5.39,1,.3,2.13.35,3.18.57a27.85,27.85,0,0,1,5.38,2.05,44.79,44.79,0,0,0,15.91,3.68,13.92,13.92,0,0,0-9.4-3.45c-2,0-4.41.25-5.36-1.47a9.39,9.39,0,0,0,6.77,4.32" transform="translate(65.75 -210.64)"/><path class="cls-13" d="M105.65,404.59l-1.12,5.69,2,.27-.17-6.11a1,1,0,0,0-1.71-.71,3.66,3.66,0,0,0-1,2.5l1.86-.5a2.92,2.92,0,0,1-.28-1.19h-2A3.52,3.52,0,0,1,103,406l1.67-.44a3.37,3.37,0,0,1-1.19-2.08c-.22-1.18-1.88-.78-2,.27l-.17,1.91,2-.26-1.43-3.53c-.28-.68-1.44-1.11-1.83-.23-.21.47-.49,1.64-.91,2l.7-.29.21.08-.24,1.83.09,0L98.7,404l-.56,2,1-.73c-.15,0-1-1.46-1.33-1.67-1-.65-1.88,0-2.89.27a5.07,5.07,0,0,1-5.77-2.65l-.6,1.47c2.28-.58,3.54,2,4.36,3.63l1.37-1.37c-.94-.61-1.88-1.21-2.81-1.84-.2-.14-1-.48-.87-.76s.85-.18,1-.18a7.65,7.65,0,0,1,4,1.69c1.24.85,2.4,1.83,3.71,2.59a12.78,12.78,0,0,0,4.67,1.49c3.84.61,7.29,2.81,11,3.95a47,47,0,0,0,11.47,2,1,1,0,0,0,.71-1.71,15.28,15.28,0,0,0-7.4-3.53,20.09,20.09,0,0,0-3.72-.19c-1.16,0-2.77.13-3.48-1l-1.73,1a10.51,10.51,0,0,0,7.37,4.77c1.25.18,1.8-1.75.53-1.92a8.66,8.66,0,0,1-6.17-3.86c-.7-1.08-2.43-.08-1.73,1,1.38,2.17,4,2,6.22,2a13.13,13.13,0,0,1,8.69,3.16l.71-1.71a44.59,44.59,0,0,1-14-2.95c-2.08-.8-4.06-1.92-6.21-2.53s-4.18-.57-6.11-1.74c-2.79-1.69-5.4-4.64-8.94-4.47-1.36.07-2.87.91-2.68,2.46a3,3,0,0,0,1.5,1.94c1,.73,2.14,1.41,3.21,2.11.89.58,1.78-.54,1.37-1.37-1.29-2.57-3.34-5.39-6.62-4.55a1,1,0,0,0-.6,1.47,7.08,7.08,0,0,0,6.19,3.8,6.85,6.85,0,0,0,1.85-.23,7.64,7.64,0,0,1,.87-.32c.47-.08.31-.17.64.13.77.7.85,1.75,2.17,1.66a1,1,0,0,0,1-.73l.56-2a1,1,0,0,0-1.23-1.23l-.09,0a1,1,0,0,0-.24,1.82c1.71.82,2.21-1.3,2.74-2.48l-1.83-.23,1.44,3.52a1,1,0,0,0,2-.27l.17-1.91-2,.26a4.93,4.93,0,0,0,1.71,3,1,1,0,0,0,1.67-.44,5.06,5.06,0,0,0,.23-2c-.09-1.28-2.07-1.3-2,0a6.06,6.06,0,0,0,.56,2.2c.42.95,1.84.41,1.86-.51a1.3,1.3,0,0,1,.41-1.09l-1.71-.7.17,6.11c0,1.08,1.74,1.41,2,.26l1.13-5.69c.25-1.25-1.68-1.79-1.93-.53Z" transform="translate(65.75 -210.64)"/><path class="cls-13" d="M110.79,409.54a13.23,13.23,0,0,1,3.23,2.54" transform="translate(65.75 -210.64)"/><path class="cls-13" d="M110.28,410.4a14.27,14.27,0,0,1,1.65,1.09l-.2-.15a13.51,13.51,0,0,1,1.58,1.45,1,1,0,1,0,1.42-1.42,14.46,14.46,0,0,0-3.44-2.69,1,1,0,1,0-1,1.72Z" transform="translate(65.75 -210.64)"/><path class="cls-13" d="M158,308c-3.14.34-5.89-2.29-9-2.52-1.14-.08-2.29.16-3.43,0a12.55,12.55,0,0,1-2.59-.75c-6.89-2.44-14.37-2.48-21.68-2.49a1.35,1.35,0,0,0-1.15.37c-.47.67.51,1.42,1.31,1.59a26.79,26.79,0,0,0,6.14.19c10.2-.24,20.25,2.63,30.46,2.87a99.28,99.28,0,0,1-16.89-1.13c-5.49-1-11-3-16.51-2.09a.9.9,0,0,1,1.16-.46,14,14,0,0,0-5.79,1.13l6.42-1.82a14.57,14.57,0,0,0-4.87,1.4" transform="translate(65.75 -210.64)"/><path class="cls-13" d="M158,307c-2.44.17-4.51-1.29-6.74-2a9.14,9.14,0,0,0-3.15-.49,11.86,11.86,0,0,1-4.47-.52,53.19,53.19,0,0,0-16.18-2.61q-2-.06-3.9-.06c-1.11,0-2.72-.31-3.72.3-1.93,1.17-.18,3.21,1.32,3.61,2.65.71,5.61.19,8.32.22a81.21,81.21,0,0,1,8.81.66c6.57.8,13.1,2,19.74,2.22v-2c-5.87-.06-11.77-.12-17.54-1.27-5.35-1.08-10.61-2.72-16.13-1.92l1.13,1.47h0l.27-2a15.72,15.72,0,0,0-6.06,1.17c-1.15.47-.74,2.29.53,1.92l6.43-1.82c1-.29.89-2.1-.27-2a17.06,17.06,0,0,0-5.37,1.54c-1.16.55-.15,2.27,1,1.72a14.09,14.09,0,0,1,4.36-1.26l-.26-2-6.43,1.83.53,1.92a14.58,14.58,0,0,1,5.53-1.09,1,1,0,0,0,.26-2,2,2,0,0,0-2.28.91c-.53.82.33,1.58,1.12,1.47,5.59-.81,11,1.23,16.46,2.18a104.5,104.5,0,0,0,16.68,1.08,1,1,0,0,0,0-2c-10.38-.29-20.53-3.16-30.94-2.85-1.26,0-2.53.11-3.79,0-.68,0-1.32-.25-2-.33.15,0-1.07-.57-.43.15.09.1.92,0,1.06,0,2.45,0,4.9,0,7.35.14a58,58,0,0,1,7.67.81,61.81,61.81,0,0,1,7,1.95,10.62,10.62,0,0,0,3.72.32,8.81,8.81,0,0,1,3.59.59c2.21.85,4.27,2.09,6.73,1.92,1.28-.1,1.29-2.1,0-2Z" transform="translate(65.75 -210.64)"/></g><g id="details-3" data-name="details"><line class="cls-15" x1="136.15" y1="115.31" x2="257.56" y2="115.31"/><line class="cls-15" x1="180.83" y1="143.2" x2="124.91" y2="143.2"/><path class="cls-15" d="M115.08,353.85" transform="translate(65.75 -210.64)"/><line class="cls-15" x1="268.8" y1="143.2" x2="210.77" y2="143.2"/><line class="cls-15" x1="132.38" y1="172.61" x2="261.33" y2="172.61"/><path class="cls-15" d="M75.92,336.65s-18.55,49.26,33.55,76.06" transform="translate(65.75 -210.64)"/><path class="cls-15" d="M141.41,300s17.12,22.73,13.44,67.73-20.18,47.67-20.18,47.67" transform="translate(65.75 -210.64)"/><path class="cls-15" d="M119.77,300s-17.13,22.73-13.44,67.73,20.17,47.67,20.17,47.67" transform="translate(65.75 -210.64)"/><line class="cls-15" x1="196.23" y1="157.02" x2="196.23" y2="204.73"/><line class="cls-15" x1="196.23" y1="118.03" x2="196.23" y2="128.41"/><line class="cls-15" x1="196.23" y1="88.54" x2="196.23" y2="120.32"/><path class="cls-15" d="M187.18,345.82a82.58,82.58,0,0,1-.49,22.08c-6.33,41.94-50.44,47.32-50.44,47.32" transform="translate(65.75 -210.64)"/><path class="cls-15" d="M167.71,307.22s9.88,7.33,15.75,23" transform="translate(65.75 -210.64)"/></g><ellipse id="border-2" data-name="border" class="cls-15" cx="196.23" cy="146.63" rx="72.07" ry="58.09"/><g id="highlights"><path class="cls-4" d="M102.32,307.58A39.56,39.56,0,0,0,95,313.07a50.28,50.28,0,0,0-6,6.58,1.54,1.54,0,0,0,0,2.12,1.52,1.52,0,0,0,2.12,0,51.82,51.82,0,0,1,5.88-6.42,36.08,36.08,0,0,1,6.93-5.18c1.69-.93.18-3.53-1.51-2.59Z" transform="translate(65.75 -210.64)"/><path class="cls-4" d="M84.9,329.49a19.63,19.63,0,0,0-2,4.18l3,.4a3.27,3.27,0,0,1,0-.44l-.06.4a5.33,5.33,0,0,1,.34-1.26l-.15.36a5,5,0,0,1,.66-1.14l-.24.31c.1-.14.21-.26.32-.39a1.5,1.5,0,1,0-2.12-2.12,6.74,6.74,0,0,0-1.79,4.28,1.47,1.47,0,0,0,.44,1.06,1.58,1.58,0,0,0,.86.41,1.51,1.51,0,0,0,1.64-1.08c.15-.43.31-.87.49-1.29l-.15.36A17.69,17.69,0,0,1,87.49,331,1.51,1.51,0,0,0,87,329a1.54,1.54,0,0,0-2.06.53Z" transform="translate(65.75 -210.64)"/><path class="cls-4" d="M61.79,363.52a24,24,0,0,0,4.64,14.84,1.55,1.55,0,0,0,2.06.54,1.51,1.51,0,0,0,.53-2,21.41,21.41,0,0,1-4.23-13.33c.06-1.93-2.94-1.93-3,0Z" transform="translate(65.75 -210.64)"/></g><g id="Layer_22" data-name="Layer 22"><path class="cls-16" d="M183.63,343.4c.14.8,2.48,1.27,3.26,1.42,2.59.52,4.78,0,7.68-.71a37.61,37.61,0,0,0,5.77-1.92l-1.93-3.91C186,341,183.47,342.53,183.63,343.4Z" transform="translate(65.75 -210.64)"/><path class="cls-16" d="M215.86,347.13" transform="translate(65.75 -210.64)"/></g></g><g id="hands"><g id="Layer_9" data-name="Layer 9"><path d="M195.34,332.46a1.5,1.5,0,0,0,0-3,1.5,1.5,0,0,0,0,3Z" transform="translate(65.75 -210.64)"/><path class="cls-17" d="M188.83,323.17a5.35,5.35,0,0,1,4.38-.81,5.11,5.11,0,0,1,2.53,1.68c1.54,1.84,1.94,4.09,1,5.59a5.44,5.44,0,0,1-1.43,1.28,10.12,10.12,0,0,1-3.07,1.68,9.81,9.81,0,0,1-2.29.5c-2.63.51-4.65,1-5.76,1.28a6.15,6.15,0,0,0-1.74.83,2.31,2.31,0,0,0-.83.87,1.33,1.33,0,0,0,0,1.18,1.56,1.56,0,0,0,1.8.59c.66-.17,1.24-.57,1.88-.8a4.3,4.3,0,0,0-2.89,2.21,1.32,1.32,0,0,0,0,1.4,1,1,0,0,0,.63.34,3.23,3.23,0,0,0,1.92-.47l2.35-1.14a16.41,16.41,0,0,0-2.95,1.35,2.71,2.71,0,0,0-1.14,1,2.65,2.65,0,0,0-.22,1.15,1.6,1.6,0,0,0,.07.58c.21.64,1,.86,1.67.86a9.62,9.62,0,0,0,3.57-1c2.2-.91,5.53-2.93,10.69-5.12a10.63,10.63,0,0,0,1.39-1.33,11.49,11.49,0,0,0,2.63-6.57,12.36,12.36,0,0,0-.44-4.38,11.68,11.68,0,0,0-1.86-4.19,12,12,0,0,0-5-3.76,17.87,17.87,0,0,0-5.79-1.43,27.48,27.48,0,0,0-7.21.1" transform="translate(65.75 -210.64)"/><path d="M189,323.49c3.11-2.14,7-.15,7.76,3.4.8,3.72-4.09,5.36-6.9,5.84-1.62.27-3.23.66-4.83,1a7,7,0,0,0-3.16,1.4,1.76,1.76,0,0,0-.16,2.75c1.17.86,2.56-.07,3.67-.53.43-.18.28-.85-.2-.72-1.41.37-4,2-3.32,3.84.79,2.19,4.45-.28,5.57-.82.38-.18.11-.83-.29-.68-1.85.67-4.61,1.52-4.58,3.89,0,1.95,2.12,2,3.58,1.62a24.4,24.4,0,0,0,5.34-2.28c2.23-1.14,4.46-2.26,6.74-3.26,3.67-1.61,5.31-6.35,5.13-10.13a12.3,12.3,0,0,0-6-10.36c-4.43-2.5-9.87-2.81-14.83-2.15-.47.07-.27.79.2.73,7.38-1,17.05.43,19.31,8.75a12.25,12.25,0,0,1-.68,8.83,10.15,10.15,0,0,1-2,2.67,10,10,0,0,1-3,1.67c-1.64.75-3.24,1.56-4.85,2.38a38,38,0,0,1-4.48,2.09c-1.16.41-3.9,1.21-3.71-.9.14-1.55,2.77-2.39,4-2.83l-.29-.69-1.57.76c-.48.24-1.29.85-1.82.79-2-.22-.69-1.72-.09-2.27a4.12,4.12,0,0,1,1.81-.93l-.2-.72c-.41.17-.8.38-1.21.55a1.89,1.89,0,0,1-.92.27c-.82.17-1-.49-.4-2a4,4,0,0,1,1.86-.84c1.52-.42,3.09-.75,4.65-1.05,2.73-.53,5.9-1.23,7.75-3.58,1.6-2,.28-5.16-1.35-6.74a5.48,5.48,0,0,0-6.94-.46c-.4.27,0,.92.38.64Z" transform="translate(65.75 -210.64)"/><path class="cls-18" d="M189.9,316.62" transform="translate(65.75 -210.64)"/><path class="cls-18" d="M192.77,332.64" transform="translate(65.75 -210.64)"/><path class="cls-18" d="M199,338" transform="translate(65.75 -210.64)"/><path class="cls-9" d="M183.32,317.49s8,7.07,7.82,7.63" transform="translate(65.75 -210.64)"/><path class="cls-9" d="M203.37,330.52" transform="translate(65.75 -210.64)"/><circle class="cls-19" cx="189.34" cy="134.72" r="1.39"/><circle class="cls-19" cx="202" cy="134.71" r="1.39"/><path class="cls-20" d="M127.43,351.48s3.61,3.17,6.51,0" transform="translate(65.75 -210.64)"/></g></g><g id="text"><path class="cls-15" d="M.38,209.07" transform="translate(65.75 -210.64)"/><text class="cls-21" transform="translate(176.54 77.11)">CERES</text><text class="cls-22" transform="translate(215.21 42.12)">WE ARE</text></g><g id="hearts"><path class="cls-16" d="M268,211.64" transform="translate(65.75 -210.64)"/><path class="cls-23" d="M168.16,303.9a4.51,4.51,0,0,1,3.62-.91,4.62,4.62,0,0,1,3.3,2.72,4.36,4.36,0,0,1,.22,2.17,8.24,8.24,0,0,1-1.17,2.48s-1.15,1.23-1.56,1.58-1.6,1.21-2,1.45A22.46,22.46,0,0,1,168,314.7a9.05,9.05,0,0,1-1.45.32h-.12a5.4,5.4,0,0,1-.7-.13,7.92,7.92,0,0,1-1.34-.88,22.26,22.26,0,0,1-1.94-2.16c-.24-.36-1-1.6-1.29-2.07s-.88-2-.88-2a8.13,8.13,0,0,1-.18-2.73,4.4,4.4,0,0,1,1-1.94,4.6,4.6,0,0,1,4.06-1.32,4.5,4.5,0,0,1,3,2.17" transform="translate(65.75 -210.64)"/><path class="cls-8" d="M173.35,306.14s.45,3.33-3.39,5.71" transform="translate(65.75 -210.64)"/><path class="cls-23" d="M111.88,279.32a3.27,3.27,0,0,1,1.71-2.09,3.33,3.33,0,0,1,3.08.15,3.08,3.08,0,0,1,1.07,1.16,6,6,0,0,1,.39,1.94s-.13,1.22-.22,1.6-.41,1.39-.51,1.69a15.56,15.56,0,0,1-.94,1.87,5.2,5.2,0,0,1-.7.81.19.19,0,0,1-.07.06,4.86,4.86,0,0,1-.46.23,6.29,6.29,0,0,1-1.16.07,18.17,18.17,0,0,1-2-.42c-.3-.1-1.3-.48-1.65-.64s-1.39-.81-1.39-.81a6.1,6.1,0,0,1-1.29-1.5,3.18,3.18,0,0,1-.25-1.56,3.33,3.33,0,0,1,1.78-2.52,3.27,3.27,0,0,1,2.7-.06" transform="translate(65.75 -210.64)"/><path class="cls-8" d="M115.86,278.38a4.48,4.48,0,0,1,.5,4.77" transform="translate(65.75 -210.64)"/><path class="cls-24" d="M98.57,404.21a4.55,4.55,0,0,1,2.84-2.44,4.62,4.62,0,0,1,4.16,1,4.28,4.28,0,0,1,1.17,1.83,8,8,0,0,1,.06,2.74s-.48,1.62-.69,2.11-.9,1.8-1.11,2.18a23.43,23.43,0,0,1-1.73,2.33,9,9,0,0,1-1.15.93l-.11.06a6.12,6.12,0,0,1-.68.19,8.09,8.09,0,0,1-1.6-.18A22.15,22.15,0,0,1,97,413.86c-.38-.21-1.65-1-2.09-1.28s-1.69-1.43-1.69-1.43a8.29,8.29,0,0,1-1.39-2.37,4.33,4.33,0,0,1,0-2.17,4.63,4.63,0,0,1,3-3,4.54,4.54,0,0,1,3.69.59" transform="translate(65.75 -210.64)"/><path class="cls-8" d="M104.48,403.68s1.88,2.78-.49,6.62" transform="translate(65.75 -210.64)"/><path class="cls-24" d="M205.24,242.84a3,3,0,0,1,2.5-.15,3.1,3.1,0,0,1,1.85,2.2,3,3,0,0,1-.12,1.46,5.52,5.52,0,0,1-1.08,1.5s-.91.67-1.23.85-1.21.6-1.47.72a16,16,0,0,1-1.88.54,5.38,5.38,0,0,1-1,0h-.09a4.67,4.67,0,0,1-.44-.17,5,5,0,0,1-.78-.75,14.69,14.69,0,0,1-1-1.66c-.12-.27-.49-1.19-.6-1.53s-.33-1.46-.33-1.46a5.52,5.52,0,0,1,.21-1.83,3,3,0,0,1,.91-1.16,3.08,3.08,0,0,1,2.84-.37,3,3,0,0,1,1.75,1.81" transform="translate(65.75 -210.64)"/><path class="cls-8" d="M208.62,245a4.17,4.17,0,0,1-3,3.35" transform="translate(65.75 -210.64)"/><path class="cls-23" d="M40.41,300.47a3.6,3.6,0,0,1,2.48-1.63A3.69,3.69,0,0,1,46.08,300a3.43,3.43,0,0,1,.74,1.57,6.57,6.57,0,0,1-.23,2.17s-.55,1.23-.77,1.59-.89,1.33-1.09,1.61a18.07,18.07,0,0,1-1.61,1.66,7,7,0,0,1-1,.62l-.1,0s-.47.09-.55.09a7,7,0,0,1-1.24-.31,19.92,19.92,0,0,1-2-1.12c-.28-.21-1.2-.94-1.52-1.22s-1.19-1.31-1.19-1.31a6.42,6.42,0,0,1-.85-2,3.42,3.42,0,0,1,.25-1.71,3.66,3.66,0,0,1,2.7-2.06,3.61,3.61,0,0,1,2.86.84" transform="translate(65.75 -210.64)"/><path class="cls-8" d="M44.74,300.7s1.21,2.38-1.06,5.18" transform="translate(65.75 -210.64)"/></g></svg>